# xmcd
# Copyright (C) 1995-1998 Ti Kan
#
# Track frame offsets:
#       150
#       21342
#       38057
#       45817
#       64697
#       78320
#       81852
#       93910
#       115007
#       131127
#       145440
#       157062
#       174282
#
# Disc length: 2672 seconds
#
# Revision: 0
# Processed by: cddbd v1.5.2PL0 Copyright (c) Steve Scherf et al.
# Submitted via: CD-Import v1.0
#
DISCID=a00a6e0d
DTITLE=Desert Sessions - 9 and 10
DYEAR=1900
DGENRE=
TTITLE0=Dead In Love
TTITLE1=I Wanna Make It Wit Chu
TTITLE2=Covered In Punk's Blood
TTITLE3=There Will Never Be A Better Time
TTITLE4=Crawl Home
TTITLE5=I'm Here For Your Daughter
TTITLE6=Powdered Wig Machine
TTITLE7=In My Head...or Something
TTITLE8=Holey Dime
TTITLE9=A Girl Like Me
TTITLE10=Creosote
TTITLE11=Subcutaneous Phat
TTITLE12=Bring It Back Gentle
EXTD=
EXTT0=
EXTT1=
EXTT2=
EXTT3=
EXTT4=
EXTT5=
EXTT6=
EXTT7=
EXTT8=
EXTT9=
EXTT10=
EXTT11=
EXTT12=
PLAYORDER=
